<svg id="Layer_1" data-name="Layer 1" xmlns="http://www.w3.org/2000/svg" xmlns:xlink="http://www.w3.org/1999/xlink" viewBox="0 0 344.13 911.25"><defs><style>.cls-1{fill:none;}.cls-2{fill:url(#linear-gradient);}.cls-3{fill:url(#linear-gradient-2);}.cls-4{fill:url(#linear-gradient-3);}.cls-5{fill:url(#linear-gradient-4);}.cls-6{fill:url(#linear-gradient-5);}.cls-7{fill:url(#linear-gradient-6);}.cls-8{fill:url(#linear-gradient-7);}.cls-9{clip-path:url(#clip-path);}.cls-10{fill:url(#linear-gradient-8);}.cls-11,.cls-13,.cls-15{fill:#09072d;stroke-miterlimit:10;}.cls-11{stroke-width:8.53px;stroke:url(#linear-gradient-9);}.cls-12,.cls-14,.cls-16{opacity:0.72;}.cls-12{fill:url(#radial-gradient);}.cls-13,.cls-15{stroke-width:3.79px;}.cls-13{stroke:url(#linear-gradient-10);}.cls-14{fill:url(#radial-gradient-2);}.cls-15{stroke:url(#linear-gradient-11);}.cls-16{fill:url(#radial-gradient-3);}</style><linearGradient id="linear-gradient" x1="-18.13" y1="600.24" x2="67.98" y2="444.13" gradientUnits="userSpaceOnUse"><stop offset="0.08" stop-color="#900"/><stop offset="1" stop-color="#4c0606"/></linearGradient><linearGradient id="linear-gradient-2" x1="346.54" y1="608.49" x2="268.15" y2="415.72" xlink:href="#linear-gradient"/><linearGradient id="linear-gradient-3" x1="173.36" y1="967.08" x2="173.36" y2="525.94" gradientUnits="userSpaceOnUse"><stop offset="0.08" stop-color="#f2c819"/><stop offset="1" stop-color="#bc3b02"/></linearGradient><linearGradient id="linear-gradient-4" x1="170.7" y1="820.79" x2="170.7" y2="539.74" gradientUnits="userSpaceOnUse"><stop offset="0.18" stop-color="#edd25f"/><stop offset="1" stop-color="#e86a15"/></linearGradient><linearGradient id="linear-gradient-5" x1="170.67" y1="728.39" x2="170.67" y2="528.9" gradientUnits="userSpaceOnUse"><stop offset="0.31" stop-color="#efdc81"/><stop offset="1" stop-color="#ea7424"/></linearGradient><linearGradient id="linear-gradient-6" x1="21.25" y1="282.68" x2="304.12" y2="282.68" gradientUnits="userSpaceOnUse"><stop offset="0.01" stop-color="#f2f2f2"/><stop offset="0.18" stop-color="#e6e6e6"/><stop offset="0.76" stop-color="#8599ba"/><stop offset="0.93" stop-color="#51607a"/><stop offset="1" stop-color="#354966"/></linearGradient><linearGradient id="linear-gradient-7" x1="104.99" y1="548.83" x2="243.08" y2="548.83" gradientUnits="userSpaceOnUse"><stop offset="0" stop-color="#4c0606"/><stop offset="0.02" stop-color="#4c0606"/><stop offset="0.46" stop-color="#900"/><stop offset="1" stop-color="#4c0606"/></linearGradient><clipPath id="clip-path"><circle class="cls-1" cx="173.83" cy="42.73" r="104.58"/></clipPath><linearGradient id="linear-gradient-8" x1="44.9" y1="280.73" x2="302.76" y2="280.73" gradientUnits="userSpaceOnUse"><stop offset="0.01" stop-color="#900"/><stop offset="0.18" stop-color="#900"/><stop offset="0.76" stop-color="#4c0606"/><stop offset="1" stop-color="#4c0606"/></linearGradient><linearGradient id="linear-gradient-9" x1="109.63" y1="335.07" x2="238.44" y2="335.07" xlink:href="#linear-gradient"/><radialGradient id="radial-gradient" cx="176.6" cy="349.61" r="97.15" gradientUnits="userSpaceOnUse"><stop offset="0.31" stop-color="#09072d"/><stop offset="1" stop-color="#f2f2f2"/></radialGradient><linearGradient id="linear-gradient-10" x1="143.55" y1="224.18" x2="204.52" y2="224.18" xlink:href="#linear-gradient"/><radialGradient id="radial-gradient-2" cx="175.25" cy="231.09" r="46.18" xlink:href="#radial-gradient"/><linearGradient id="linear-gradient-11" x1="143.55" y1="445.97" x2="204.52" y2="445.97" xlink:href="#linear-gradient"/><radialGradient id="radial-gradient-3" cx="175.25" cy="452.88" r="46.18" xlink:href="#radial-gradient"/></defs><path class="cls-2" d="M51.65,393.32C37.5,407.26,14.85,433.8,4.89,473.05-1,496.16-.27,515.09.53,533a293.5,293.5,0,0,0,19.61,92.59L90.25,500S78.54,479.2,66.58,446.27C54.33,412.56,51.65,393.32,51.65,393.32Z"/><path class="cls-3" d="M291.77,393.83c14.24,13.86,37,40.27,47.23,79.46,6,23.08,5.4,42,4.7,59.89a293.29,293.29,0,0,1-19.07,92.71L253.8,500.76a570,570,0,0,0,21.77-52.84C282.39,428.68,287.66,410.52,291.77,393.83Z"/><path class="cls-4" d="M285.18,709c-4-47-21.22-81.47-39.93-118-5.23-10.22-13.13-24.9-23.82-42.15a110.81,110.81,0,0,1-96.41.39c-10.56,17.08-18.37,31.62-23.56,41.76-18.75,36.63-35.93,71-39.93,118-.57,6.75-1.27,12.57-.74,20.72,3.33,51.11,33.41,87.88,33.41,87.88a75.53,75.53,0,0,1,0-40.67c3.57-12.55,17.43-29,17.43-29s-1.41,61.61,29.77,120.55c11.92,22.54,32,42.85,32,42.85a176.88,176.88,0,0,0,31.95-42.85c31.18-58.94,29.78-120.55,29.78-120.55s13.86,16.5,17.43,29a75.64,75.64,0,0,1,0,40.67s30.07-36.77,33.4-87.88C286.46,721.54,285.75,715.72,285.18,709Z"/><path class="cls-5" d="M130.68,552.13a184.07,184.07,0,0,0-13.24,76c2.79,66.81,42.22,111.21,54.64,124.16,14-16.53,46.94-59.94,51.51-123.31a208.22,208.22,0,0,0-8.94-76.58,120.77,120.77,0,0,1-84-.32Z"/><path class="cls-6" d="M148.78,557.16a134.77,134.77,0,0,0-11.48,53.65c-.13,47.49,25.62,80.53,34.3,90.75,9.88-13.34,30.63-45.33,32.32-90.14a157.23,157.23,0,0,0-7.5-54,113,113,0,0,1-47.64-.25Z"/><path class="cls-7" d="M300.75,288.66c13.63,115-68.34,253-68.34,253a98.78,98.78,0,0,1-114.61,3.15,403.37,403.37,0,0,1-41.68-74.34C56.27,424.36,38.41,360.32,46.36,288.66,58.8,155.15,128,56.8,173.56,3.74,219.37,57.32,287.86,155.53,300.75,288.66Z"/><path class="cls-8" d="M118.39,551.22C137,567.49,160,567.83,171.88,568c12,.18,41.36.61,61.12-19.93,1.32-1.37,10.08-18.45,10.08-18.45s-31.3,15-69.82,15.26A177.67,177.67,0,0,1,105,531.09S112.53,546.1,118.39,551.22Z"/><g class="cls-9"><path class="cls-10" d="M301.23,286.71c13.63,115-68.35,253-68.35,253a98.78,98.78,0,0,1-114.61,3.15,404,404,0,0,1-41.68-74.34c-19.84-46.12-37.7-110.16-29.75-181.82C59.27,153.19,128.43,54.85,174,1.78,219.84,55.37,288.33,153.58,301.23,286.71Z"/></g><circle class="cls-11" cx="174.03" cy="335.07" r="60.14"/><circle class="cls-12" cx="174.03" cy="335.07" r="48.43"/><circle class="cls-13" cx="174.03" cy="224.18" r="28.59"/><circle class="cls-14" cx="174.03" cy="224.18" r="23.02"/><circle class="cls-15" cx="174.03" cy="445.97" r="28.59"/><circle class="cls-16" cx="174.03" cy="445.97" r="23.02"/></svg>